<?xml version="1.0" encoding="UTF-8"?>
<svg id="_Слой_2" data-name="Слой_2" xmlns="http://www.w3.org/2000/svg" xmlns:xlink="http://www.w3.org/1999/xlink" viewBox="0 0 151.91 175.42">
  <defs>
    <style>
      .cls-1 {
        fill: url(#_Безымянный_градиент_93);
      }

      .cls-2 {
        fill: url(#_Безымянный_градиент_95);
      }

      .cls-3 {
        fill: url(#_Безымянный_градиент_41);
      }

      .cls-4 {
        fill: url(#_Безымянный_градиент_44);
      }

      .cls-5 {
        fill: url(#_Безымянный_градиент_34);
      }

      .cls-6 {
        fill: url(#_Безымянный_градиент_92);
      }
    </style>
    <radialGradient id="_Безымянный_градиент_93" data-name="Безымянный градиент 93" cx="113.87" cy="109.2" fx="113.87" fy="109.2" r="26.08" gradientTransform="translate(-27.81 -28.92) rotate(-10.59) scale(1 1.48)" gradientUnits="userSpaceOnUse">
      <stop offset="0" stop-color="#2bab63"/>
      <stop offset=".61" stop-color="#40ae61"/>
      <stop offset=".82" stop-color="#49b061"/>
    </radialGradient>
    <radialGradient id="_Безымянный_градиент_92" data-name="Безымянный градиент 92" cx="40.08" cy="110.22" fx="40.08" fy="110.22" r="29.04" gradientTransform="translate(69.73 265.27) rotate(-176.12) scale(1 1.39)" gradientUnits="userSpaceOnUse">
      <stop offset="0" stop-color="#2bab63"/>
      <stop offset=".69" stop-color="#40ae61"/>
      <stop offset=".94" stop-color="#49b061"/>
    </radialGradient>
    <radialGradient id="_Безымянный_градиент_44" data-name="Безымянный градиент 44" cx="1325.03" cy="105.81" fx="1315.71" fy="105.81" r="54.25" gradientTransform="translate(1370.42) rotate(-180) scale(1 -1)" gradientUnits="userSpaceOnUse">
      <stop offset="0" stop-color="#64b663"/>
      <stop offset=".71" stop-color="#4eb161"/>
      <stop offset=".87" stop-color="#49b061"/>
    </radialGradient>
    <radialGradient id="_Безымянный_градиент_41" data-name="Безымянный градиент 41" cx="1219.97" cy="98.92" fx="1219.97" fy="98.92" r="60.85" gradientTransform="translate(1163.45 -587.9) rotate(150.44) scale(1 -.99)" gradientUnits="userSpaceOnUse">
      <stop offset="0" stop-color="#64b663"/>
      <stop offset=".66" stop-color="#4eb161"/>
      <stop offset=".81" stop-color="#49b061"/>
    </radialGradient>
    <radialGradient id="_Безымянный_градиент_34" data-name="Безымянный градиент 34" cx="1294.46" cy="58.15" fx="1294.46" fy="99.15" r="75.69" gradientTransform="translate(1369.9 8.77) rotate(179.29) scale(1 -.57)" gradientUnits="userSpaceOnUse">
      <stop offset="0" stop-color="#94c356"/>
      <stop offset="0" stop-color="#89c058"/>
      <stop offset="0" stop-color="#6db860"/>
      <stop offset="0" stop-color="#64b663"/>
      <stop offset=".65" stop-color="#4eb161"/>
      <stop offset=".8" stop-color="#49b061"/>
    </radialGradient>
    <radialGradient id="_Безымянный_градиент_95" data-name="Безымянный градиент 95" cx="84.64" cy="48.76" fx="84.64" fy="48.76" r="37.83" gradientTransform="translate(42.88 147.29) rotate(-104.77) scale(1 1.34)" gradientUnits="userSpaceOnUse">
      <stop offset="0" stop-color="#2bab63"/>
      <stop offset=".74" stop-color="#40ae61"/>
      <stop offset="1" stop-color="#49b061"/>
    </radialGradient>
  </defs>
  <g id="_Слой_1-2" data-name="Слой_1">
    <g>
      <polygon class="cls-1" points="151.91 106.5 151.91 106.51 141.06 112.77 130.21 119.03 119.36 125.3 108.51 131.56 108.51 106.51 119.36 100.24 130.21 93.98 141.06 100.24 151.91 106.5"/>
      <polygon class="cls-6" points="43.4 106.51 43.4 131.56 32.55 125.3 21.7 119.03 10.85 112.77 0 106.51 0 106.5 10.85 100.24 21.7 93.98 32.55 100.24 43.4 106.51"/>
      <polygon class="cls-4" points="75.96 87.71 75.96 175.42 65.1 169.16 54.25 162.89 43.4 156.63 43.4 156.62 32.55 150.36 21.7 144.1 10.85 137.83 0 131.57 0 106.51 10.85 112.77 21.7 119.03 32.55 125.3 43.4 131.56 43.4 106.51 32.55 100.24 21.7 93.98 10.85 87.72 10.85 87.71 10.84 87.71 0 81.45 0 43.86 10.85 50.12 21.7 56.39 32.55 62.65 43.4 68.91 43.4 68.92 65.1 81.44 65.1 81.45 75.96 87.71"/>
      <path class="cls-3" d="M141.06,50.12l-10.85,6.27-10.85,6.26-10.85,6.26h0s-10.85,6.27-10.85,6.27l-10.85,6.26h0s-10.85,6.27-10.85,6.27v87.71l10.85-6.26,10.85-6.27,10.85-6.26h0s21.7-12.53,21.7-12.53l10.85-6.27,10.85-6.26v-25.06l-10.85,6.26-10.85,6.26-10.85,6.27-10.85,6.26v-25.05l10.85-6.27,10.85-6.26,10.85-6.26h0s.01-.01.01-.01l10.84-6.26v-37.59l-10.85,6.26Z"/>
      <polygon class="cls-5" points="151.91 43.85 151.91 43.86 141.06 50.12 130.21 56.39 119.36 62.65 108.51 68.91 108.51 68.92 97.66 75.18 86.81 81.44 86.81 81.45 75.96 87.71 65.1 81.45 65.1 81.44 43.4 68.92 43.4 68.91 32.55 62.65 21.7 56.39 10.85 50.12 0 43.86 0 43.85 10.85 37.59 21.7 31.33 32.55 25.06 43.4 18.8 54.25 12.53 65.1 6.27 75.96 0 75.96 .01 86.81 6.27 97.66 12.53 86.81 18.79 86.81 18.8 86.8 18.8 75.96 25.06 65.1 31.33 54.25 37.59 65.1 43.85 65.1 43.86 75.96 50.12 86.8 56.39 86.81 56.39 86.81 56.38 97.66 50.12 108.51 43.86 108.51 43.85 119.36 37.59 130.21 31.33 141.06 37.59 151.91 43.85"/>
      <polygon class="cls-2" points="97.66 12.53 97.66 50.12 86.81 56.38 86.81 56.39 86.8 56.39 75.96 50.12 65.1 43.86 65.1 43.85 54.25 37.59 65.1 31.33 75.96 25.06 86.8 18.8 86.81 18.8 86.81 18.79 97.66 12.53"/>
    </g>
  </g>
</svg>